PathFileType	4	(X/Y/Z)	C:/Users/opensim2020/Desktop/walking_exp_matlab/subject02_walking09_straight_02.trc	
DataRate	CameraRate	NumFrames	NumMarkers	Units	OrigDataRate	OrigDataStartFrame	OrigNumFrames	
100.00	100.00	4	42	mm	100.00	1541	436	
Frame#	Time	LFHD			RFHD			LBHD			RBHD			C7			T10			CLAV			STRN			RBAK			LSHO			LUPA			LELB			LFRM			LWRA			LWRB			LFIN			RSHO			RUPA			RELB			RFRM			RWRA			RWRB			RFIN			LASI			RASI			LPSI			RPSI			LTHI			LKNE			LTIB			LANK			LHEE			LTOE			RTHI			RKNE			RTIB			RANK			RHEE			RTOE			*39			*40			*41			
		X1	Y1	Z1	X2	Y2	Z2	X3	Y3	Z3	X4	Y4	Z4	X5	Y5	Z5	X6	Y6	Z6	X7	Y7	Z7	X8	Y8	Z8	X9	Y9	Z9	X10	Y10	Z10	X11	Y11	Z11	X12	Y12	Z12	X13	Y13	Z13	X14	Y14	Z14	X15	Y15	Z15	X16	Y16	Z16	X17	Y17	Z17	X18	Y18	Z18	X19	Y19	Z19	X20	Y20	Z20	X21	Y21	Z21	X22	Y22	Z22	X23	Y23	Z23	X24	Y24	Z24	X25	Y25	Z25	X26	Y26	Z26	X27	Y27	Z27	X28	Y28	Z28	X29	Y29	Z29	X30	Y30	Z30	X31	Y31	Z31	X32	Y32	Z32	X33	Y33	Z33	X34	Y34	Z34	X35	Y35	Z35	X36	Y36	Z36	X37	Y37	Z37	X38	Y38	Z38	X39	Y39	Z39	X40	Y40	Z40	X41	Y41	Z41	X42	Y42	Z42	

328	3.270	1497.65820	-332.67871	1720.00745	1355.01465	-327.47156	1698.28796	1510.93005	-198.91190	1652.30859	1369.57263	-181.35941	1630.62598	1431.34595	-138.44600	1511.62878	1416.75110	-77.56609	1236.02344	1453.62305	-272.56720	1436.00745	1438.90002	-320.99530	1264.49341	1354.78369	-81.97941	1341.91455	1616.69348	-187.56844	1474.77332	1689.51941	-138.27095	1278.79321	1693.15491	-108.95724	1142.91479	1715.37036	-77.81646	1018.70117	1707.18311	-98.57505	878.86115	1727.04517	-48.97874	898.23657	1736.63879	-46.60727	830.94708	1253.67102	-234.24915	1481.51782	1159.68457	-234.59235	1291.66077	1139.63513	-277.41418	1148.92737	1136.27307	-349.52255	1050.22070	1170.33789	-442.03384	958.21265	1138.69666	-403.21500	931.36383	1141.24304	-464.61273	893.55206	1555.62842	-314.93161	973.99036	1295.57422	-306.18512	954.89697	1477.19385	-101.49219	1015.17297	1363.84607	-93.84257	1017.05756	1629.52539	-319.62457	675.96521	1602.05212	-359.75348	479.93378	1608.39941	-365.56628	286.81512	1592.06274	-445.21182	75.80013	1537.66321	-424.12830	41.64623	1606.72510	-603.55652	67.88882	1247.30164	-169.65527	659.20349	1289.21729	-119.79626	454.06311	1289.64453	-23.67591	289.83694	1332.45874	47.62757	110.13631	1391.62378	90.96140	62.89132	1309.08533	-89.96325	34.84123	1408.84082	-231.69141	1789.03625						 
329	3.280	1499.58643	-340.76569	1719.25964	1356.90930	-335.37305	1697.37146	1512.98303	-206.93616	1651.65039	1371.69629	-189.22572	1629.85608	1433.63831	-146.36705	1510.65515	1419.35754	-86.25027	1234.79407	1455.78821	-280.37799	1435.27332	1441.17700	-329.62079	1264.00830	1357.80798	-89.50993	1340.80310	1618.94080	-195.49486	1474.08752	1691.66846	-146.38968	1278.07336	1695.41150	-117.72123	1142.05579	1717.66077	-86.86414	1017.69543	1709.49353	-108.34290	877.81891	1729.29358	-58.47852	897.20483	1739.15808	-56.27862	829.90430	1255.71521	-242.03441	1480.52283	1161.99939	-241.73346	1290.47717	1142.27820	-283.40378	1147.58630	1139.22083	-354.89001	1048.52356	1173.05664	-447.34561	956.26941	1141.68274	-408.49329	929.57623	1144.28723	-469.82587	891.43250	1557.90344	-324.56949	973.61475	1297.77100	-315.19370	954.27972	1479.95618	-111.03773	1014.25421	1366.70825	-102.94059	1016.23309	1631.46472	-328.81036	674.60742	1603.08459	-368.20764	478.51483	1609.00537	-371.68228	285.29266	1591.28381	-447.76740	73.08576	1536.89661	-426.04819	39.27183	1605.71936	-605.94464	63.45600	1248.46021	-176.77194	659.06421	1289.67041	-126.02753	454.02780	1289.90796	-27.65344	291.12350	1332.01135	46.32666	112.43577	1391.08032	90.25426	65.91572	1308.87720	-90.11069	34.83500	1410.78357	-239.76820	1788.24011	-3356.89673	2846.04102	1034.06458			 
330	3.290	1501.70068	-348.81638	1718.43250	1358.85229	-343.22067	1696.41663	1515.33447	-214.77315	1651.04590	1373.92200	-197.06017	1629.06824	1435.98523	-154.34140	1509.57056	1422.18433	-95.03973	1233.48718	1458.10278	-288.92618	1434.76990	1443.51282	-338.42206	1263.59033	1360.50806	-97.87711	1339.37866	1621.17407	-203.58684	1473.44495	1694.14795	-154.98473	1277.32410	1697.95007	-126.50468	1141.30725	1720.02808	-96.20974	1016.68726	1712.37256	-118.16580	877.20074	1731.72241	-68.26231	896.19531	1741.77344	-66.38951	829.02850	1257.97754	-249.43282	1479.56372	1164.84900	-248.07672	1289.28833	1145.13721	-289.33398	1146.15125	1141.99939	-360.37662	1046.74158	1175.77539	-452.67621	954.30823	1144.58569	-413.53375	927.56848	1147.29456	-474.58377	889.08276	1560.22021	-334.59937	973.36035	1299.97192	-324.41055	953.76611	1483.05420	-120.87282	1013.24963	1369.82214	-112.25880	1015.26630	1633.48083	-337.95459	673.41675	1604.12366	-376.22745	476.90128	1609.53894	-377.22507	283.47314	1590.56226	-449.80814	70.23487	1536.13452	-427.47638	37.29811	1604.73389	-607.93610	58.91845	1249.84851	-184.62766	658.75702	1290.09473	-132.67819	454.00021	1290.30298	-31.83227	292.54523	1331.67798	44.90860	114.95960	1390.64978	89.32610	69.07610	1308.66345	-90.32335	34.78402	1412.81970	-247.71133	1787.51025	-3356.90088	2845.95288	1034.03320			 
331	3.300	1503.59399	-356.87378	1717.72205	1360.87878	-351.05161	1695.41931	1517.51135	-222.91367	1650.35864	1376.21045	-204.89752	1628.22229	1438.55603	-162.52332	1508.53796	1425.21191	-103.99963	1232.03479	1460.43311	-297.26242	1434.20654	1445.91357	-347.32639	1263.13855	1363.07080	-106.34238	1337.76050	1623.47791	-211.78716	1472.79834	1696.57861	-163.64160	1276.60486	1700.52979	-135.59802	1140.50867	1721.87561	-105.96801	1015.54657	1715.08801	-128.40425	876.44263	1734.16418	-78.37638	895.15179	1744.41516	-76.82655	827.96057	1260.20923	-257.03043	1478.56348	1167.53784	-254.76685	1288.06445	1148.08105	-295.38000	1144.63269	1144.64355	-366.15384	1045.18994	1178.54492	-457.51471	952.04022	1147.42615	-418.19806	925.47552	1150.21033	-478.96320	886.42517	1562.48499	-345.04471	973.02832	1302.26270	-333.79059	953.27423	1486.33484	-130.95595	1012.15967	1373.19238	-121.83071	1014.18835	1635.60352	-346.99503	672.00568	1605.26733	-383.66183	475.05536	1609.96558	-382.19223	281.41788	1589.93848	-451.74683	67.35796	1535.55115	-428.59006	34.85049	1603.61389	-609.66504	53.87657	1250.85132	-192.43350	658.82727	1290.48340	-139.52411	454.05878	1290.77441	-36.20317	294.15610	1331.34412	43.27363	117.69983	1390.38440	88.18962	72.63460	1308.41785	-90.53371	34.77840	1414.67749	-255.88414	1786.54065	-3360.32959	2845.12817	1034.13416			 
